<svg width="200.000000" height="29.302002" viewBox="0 0 200 29.302" fill="none" xmlns="http://www.w3.org/2000/svg" xmlns:xlink="http://www.w3.org/1999/xlink">
	<desc>
			Created with Pixso.
	</desc>
	<defs>
		<clipPath id="clip4_87">
			<rect width="29.302002" height="29.302002" transform="translate(85.000000 0.000000)" fill="white" fill-opacity="0"/>
		</clipPath>
	</defs>
	<rect width="29.302002" height="29.302002" transform="translate(85.000000 0.000000)" fill="#FFFFFF" fill-opacity="0"/>
	<g clip-path="url(#clip4_87)">
		<path d="M90.38 26.55C89.03 24.16 89.95 20.41 92.75 17.61C95.93 14.43 100.33 13.67 102.58 15.92C102.58 15.92 102.58 15.92 102.59 15.93C102.14 17.23 100.71 20.02 96.42 21.52C92.48 22.9 90.97 25.09 90.38 26.55ZM101.26 19.59C100.23 20.61 98.77 21.62 96.71 22.35C92.51 23.82 91.34 26.22 91.01 27.39C91.03 27.4 91.04 27.42 91.06 27.44C93.3 29.68 97.7 28.92 100.88 25.74C103.71 22.91 104.62 19.12 103.21 16.73C102.87 17.53 102.28 18.56 101.26 19.59ZM92.58 9.24C97.11 9.64 99.56 7.69 100.51 6.69C100.51 6.68 100.5 6.68 100.5 6.67C99.38 3.7 95.06 2.58 90.85 4.17C87.15 5.57 84.76 8.6 85.01 11.33C86.15 10.25 88.43 8.88 92.58 9.24ZM94.91 14.93C98.66 13.52 101.05 10.43 100.74 7.68C100.11 8.26 99.14 8.96 97.79 9.47C96.43 9.99 94.68 10.3 92.5 10.11C88.08 9.72 86.02 11.44 85.24 12.36C85.25 12.38 85.25 12.4 85.26 12.42C86.38 15.4 90.7 16.52 94.91 14.93ZM108.02 8.73C110.74 5.09 110.37 1.98 110.01 0.64C110.01 0.64 110 0.64 110 0.64C106.88 0.03 103.66 3.12 102.8 7.54C102.04 11.43 103.37 15.05 105.83 16.27C105.5 14.74 105.53 12.07 108.02 8.73ZM110.98 0.97C111.14 1.82 111.23 3.01 110.95 4.42C110.68 5.85 110.03 7.5 108.72 9.26C106.07 12.82 106.44 15.47 106.82 16.62C106.84 16.62 106.86 16.63 106.88 16.63C110 17.24 113.23 14.15 114.09 9.74C114.85 5.81 113.48 2.15 110.98 0.97Z" fill="#000000" fill-opacity="1.000000" fill-rule="nonzero"/>
	</g>
	<line x1="0.000000" y1="14.500000" x2="60.000000" y2="14.500000" stroke="#000000" stroke-opacity="1.000000" stroke-width="1.000000"/>
	<line x1="140.000000" y1="14.500000" x2="200.000000" y2="14.500000" stroke="#000000" stroke-opacity="1.000000" stroke-width="1.000000"/>
</svg>
